# Blender v2.83.0 OBJ File: ''
# www.blender.org
o Cube_Cube.016
v 9.149345 12.733754 3.222693
v 9.149345 12.492768 3.222693
v 9.149345 12.733754 9.662584
v 9.149345 12.492768 9.662584
v 2.709455 12.733754 3.222693
v 2.709455 12.492768 3.222693
v 2.709455 12.733754 9.662584
v 2.709455 12.492768 9.662584
v -7.564565 -0.092942 -8.429605
v -7.564565 12.619336 -8.429605
v -7.564565 -0.092942 -9.078703
v -7.564565 12.619336 -9.078703
v -6.915467 -0.092942 -8.429605
v -6.915467 12.619336 -8.429605
v -6.915467 -0.092942 -9.078703
v -6.915467 12.619336 -9.078703
v 9.997661 -0.099936 -9.997662
v 9.997661 0.099936 -9.997662
v 9.997661 -0.099936 9.997660
v 9.997661 0.099936 9.997660
v -9.997660 -0.099936 -9.997662
v -9.997660 0.099936 -9.997662
v -9.997660 -0.099936 9.997660
v -9.997660 0.099936 9.997660
v -9.329519 -0.092942 -8.859887
v -9.329519 12.619336 -8.859887
v -9.329519 -0.092942 -9.508986
v -9.329519 12.619336 -9.508986
v -8.680422 -0.092942 -8.859887
v -8.680422 12.619336 -8.859887
v -8.680422 -0.092942 -9.508986
v -8.680422 12.619336 -9.508986
v -9.259224 -0.092942 -4.753502
v -9.259224 12.619336 -4.753502
v -9.259224 -0.092942 -5.402599
v -9.259224 12.619336 -5.402599
v -8.610126 -0.092942 -4.753502
v -8.610126 12.619336 -4.753502
v -8.610126 -0.092942 -5.402599
v -8.610126 12.619336 -5.402599
v -9.363510 -0.092942 -1.207757
v -9.363510 12.619336 -1.207757
v -9.363510 -0.092942 -1.856855
v -9.363510 12.619336 -1.856855
v -8.714413 -0.092942 -1.207757
v -8.714413 12.619336 -1.207757
v -8.714413 -0.092942 -1.856855
v -8.714413 12.619336 -1.856855
v -9.467796 -0.092942 2.885491
v -9.467796 12.619336 2.885491
v -9.467796 -0.092942 2.236393
v -9.467796 12.619336 2.236393
v -8.818699 -0.092942 2.885491
v -8.818699 12.619336 2.885491
v -8.818699 -0.092942 2.236393
v -8.818699 12.619336 2.236393
v -9.441725 -0.092942 7.813034
v -9.441725 12.619336 7.813034
v -9.441725 -0.092942 7.163935
v -9.441725 12.619336 7.163935
v -8.792627 -0.092942 7.813034
v -8.792627 12.619336 7.813034
v -8.792627 -0.092942 7.163935
v -8.792627 12.619336 7.163935
v -5.139903 -0.092942 9.455549
v -5.139903 12.619336 9.455549
v -5.139903 -0.092942 8.806451
v -5.139903 12.619336 8.806451
v -4.490804 -0.092942 9.455549
v -4.490804 12.619336 9.455549
v -4.490804 -0.092942 8.806451
v -4.490804 12.619336 8.806451
v 0.413359 -0.092942 9.507692
v 0.413359 12.619336 9.507692
v 0.413359 -0.092942 8.858595
v 0.413359 12.619336 8.858595
v 1.062458 -0.092942 9.507692
v 1.062458 12.619336 9.507692
v 1.062458 -0.092942 8.858595
v 1.062458 12.619336 8.858595
v 5.549476 -0.092942 9.455549
v 5.549476 12.619336 9.455549
v 5.549476 -0.092942 8.806451
v 5.549476 12.619336 8.806451
v 6.198574 -0.092942 9.455549
v 6.198574 12.619336 9.455549
v 6.198574 -0.092942 8.806451
v 6.198574 12.619336 8.806451
v 8.286997 -0.092942 4.919082
v 8.286997 12.619336 4.919082
v 8.286997 -0.092942 4.269984
v 8.286997 12.619336 4.269984
v 8.936095 -0.092942 4.919082
v 8.936095 12.619336 4.919082
v 8.936095 -0.092942 4.269984
v 8.936095 12.619336 4.269984
v 8.417356 -0.092942 -0.634181
v 8.417356 12.619336 -0.634181
v 8.417356 -0.092942 -1.283278
v 8.417356 12.619336 -1.283278
v 9.066454 -0.092942 -0.634181
v 9.066454 12.619336 -0.634181
v 9.066454 -0.092942 -1.283278
v 9.066454 12.619336 -1.283278
v 8.391285 -0.092942 -5.274935
v 8.391285 12.619336 -5.274935
v 8.391285 -0.092942 -5.924032
v 8.391285 12.619336 -5.924032
v 9.040383 -0.092942 -5.274935
v 9.040383 12.619336 -5.274935
v 9.040383 -0.092942 -5.924032
v 9.040383 12.619336 -5.924032
v 7.583065 -0.092942 -8.012458
v 7.583065 12.619336 -8.012458
v 7.583065 -0.092942 -8.661556
v 7.583065 12.619336 -8.661556
v 8.232162 -0.092942 -8.012458
v 8.232162 12.619336 -8.012458
v 8.232162 -0.092942 -8.661556
v 8.232162 12.619336 -8.661556
v 1.716943 -0.092942 -8.586035
v 1.716943 12.619336 -8.586035
v 1.716943 -0.092942 -9.235133
v 1.716943 12.619336 -9.235133
v 2.366040 -0.092942 -8.586035
v 2.366040 12.619336 -8.586035
v 2.366040 -0.092942 -9.235133
v 2.366040 12.619336 -9.235133
v -4.279538 -0.092942 -8.716393
v -4.279538 12.619336 -8.716393
v -4.279538 -0.092942 -9.365491
v -4.279538 12.619336 -9.365491
v -3.630439 -0.092942 -8.716393
v -3.630439 12.619336 -8.716393
v -3.630439 -0.092942 -9.365491
v -3.630439 12.619336 -9.365491
vn 1.0000 0.0000 0.0000
vn 0.0000 0.0000 1.0000
vn -1.0000 0.0000 0.0000
vn 0.0000 0.0000 -1.0000
vn 0.0000 1.0000 0.0000
vn 0.0000 -1.0000 0.0000
s off
f 2//1 1//1 3//1
f 4//2 3//2 7//2
f 8//3 7//3 5//3
f 6//4 5//4 1//4
f 7//5 3//5 1//5
f 4//6 8//6 6//6
f 11//3 9//3 10//3
f 15//4 11//4 12//4
f 13//1 15//1 16//1
f 9//2 13//2 14//2
f 9//6 11//6 15//6
f 14//5 16//5 12//5
f 21//6 17//6 19//6
f 19//2 20//2 24//2
f 23//3 24//3 22//3
f 18//5 22//5 24//5
f 17//1 18//1 20//1
f 21//4 22//4 18//4
f 27//3 25//3 26//3
f 31//4 27//4 28//4
f 29//1 31//1 32//1
f 25//2 29//2 30//2
f 25//6 27//6 31//6
f 30//5 32//5 28//5
f 35//3 33//3 34//3
f 39//4 35//4 36//4
f 37//1 39//1 40//1
f 33//2 37//2 38//2
f 33//6 35//6 39//6
f 38//5 40//5 36//5
f 43//3 41//3 42//3
f 47//4 43//4 44//4
f 45//1 47//1 48//1
f 41//2 45//2 46//2
f 41//6 43//6 47//6
f 46//5 48//5 44//5
f 51//3 49//3 50//3
f 55//4 51//4 52//4
f 53//1 55//1 56//1
f 49//2 53//2 54//2
f 49//6 51//6 55//6
f 54//5 56//5 52//5
f 59//3 57//3 58//3
f 63//4 59//4 60//4
f 61//1 63//1 64//1
f 57//2 61//2 62//2
f 57//6 59//6 63//6
f 62//5 64//5 60//5
f 67//3 65//3 66//3
f 71//4 67//4 68//4
f 69//1 71//1 72//1
f 65//2 69//2 70//2
f 65//6 67//6 71//6
f 70//5 72//5 68//5
f 75//3 73//3 74//3
f 79//4 75//4 76//4
f 77//1 79//1 80//1
f 73//2 77//2 78//2
f 73//6 75//6 79//6
f 78//5 80//5 76//5
f 83//3 81//3 82//3
f 87//4 83//4 84//4
f 85//1 87//1 88//1
f 81//2 85//2 86//2
f 81//6 83//6 87//6
f 86//5 88//5 84//5
f 91//3 89//3 90//3
f 95//4 91//4 92//4
f 93//1 95//1 96//1
f 89//2 93//2 94//2
f 89//6 91//6 95//6
f 94//5 96//5 92//5
f 99//3 97//3 98//3
f 103//4 99//4 100//4
f 101//1 103//1 104//1
f 97//2 101//2 102//2
f 97//6 99//6 103//6
f 102//5 104//5 100//5
f 107//3 105//3 106//3
f 111//4 107//4 108//4
f 109//1 111//1 112//1
f 105//2 109//2 110//2
f 105//6 107//6 111//6
f 110//5 112//5 108//5
f 115//3 113//3 114//3
f 119//4 115//4 116//4
f 117//1 119//1 120//1
f 113//2 117//2 118//2
f 113//6 115//6 119//6
f 118//5 120//5 116//5
f 123//3 121//3 122//3
f 127//4 123//4 124//4
f 125//1 127//1 128//1
f 121//2 125//2 126//2
f 121//6 123//6 127//6
f 126//5 128//5 124//5
f 131//3 129//3 130//3
f 135//4 131//4 132//4
f 133//1 135//1 136//1
f 129//2 133//2 134//2
f 129//6 131//6 135//6
f 134//5 136//5 132//5
f 2//1 3//1 4//1
f 4//2 7//2 8//2
f 8//3 5//3 6//3
f 6//4 1//4 2//4
f 7//5 1//5 5//5
f 4//6 6//6 2//6
f 11//3 10//3 12//3
f 15//4 12//4 16//4
f 13//1 16//1 14//1
f 9//2 14//2 10//2
f 9//6 15//6 13//6
f 14//5 12//5 10//5
f 21//6 19//6 23//6
f 19//2 24//2 23//2
f 23//3 22//3 21//3
f 18//5 24//5 20//5
f 17//1 20//1 19//1
f 21//4 18//4 17//4
f 27//3 26//3 28//3
f 31//4 28//4 32//4
f 29//1 32//1 30//1
f 25//2 30//2 26//2
f 25//6 31//6 29//6
f 30//5 28//5 26//5
f 35//3 34//3 36//3
f 39//4 36//4 40//4
f 37//1 40//1 38//1
f 33//2 38//2 34//2
f 33//6 39//6 37//6
f 38//5 36//5 34//5
f 43//3 42//3 44//3
f 47//4 44//4 48//4
f 45//1 48//1 46//1
f 41//2 46//2 42//2
f 41//6 47//6 45//6
f 46//5 44//5 42//5
f 51//3 50//3 52//3
f 55//4 52//4 56//4
f 53//1 56//1 54//1
f 49//2 54//2 50//2
f 49//6 55//6 53//6
f 54//5 52//5 50//5
f 59//3 58//3 60//3
f 63//4 60//4 64//4
f 61//1 64//1 62//1
f 57//2 62//2 58//2
f 57//6 63//6 61//6
f 62//5 60//5 58//5
f 67//3 66//3 68//3
f 71//4 68//4 72//4
f 69//1 72//1 70//1
f 65//2 70//2 66//2
f 65//6 71//6 69//6
f 70//5 68//5 66//5
f 75//3 74//3 76//3
f 79//4 76//4 80//4
f 77//1 80//1 78//1
f 73//2 78//2 74//2
f 73//6 79//6 77//6
f 78//5 76//5 74//5
f 83//3 82//3 84//3
f 87//4 84//4 88//4
f 85//1 88//1 86//1
f 81//2 86//2 82//2
f 81//6 87//6 85//6
f 86//5 84//5 82//5
f 91//3 90//3 92//3
f 95//4 92//4 96//4
f 93//1 96//1 94//1
f 89//2 94//2 90//2
f 89//6 95//6 93//6
f 94//5 92//5 90//5
f 99//3 98//3 100//3
f 103//4 100//4 104//4
f 101//1 104//1 102//1
f 97//2 102//2 98//2
f 97//6 103//6 101//6
f 102//5 100//5 98//5
f 107//3 106//3 108//3
f 111//4 108//4 112//4
f 109//1 112//1 110//1
f 105//2 110//2 106//2
f 105//6 111//6 109//6
f 110//5 108//5 106//5
f 115//3 114//3 116//3
f 119//4 116//4 120//4
f 117//1 120//1 118//1
f 113//2 118//2 114//2
f 113//6 119//6 117//6
f 118//5 116//5 114//5
f 123//3 122//3 124//3
f 127//4 124//4 128//4
f 125//1 128//1 126//1
f 121//2 126//2 122//2
f 121//6 127//6 125//6
f 126//5 124//5 122//5
f 131//3 130//3 132//3
f 135//4 132//4 136//4
f 133//1 136//1 134//1
f 129//2 134//2 130//2
f 129//6 135//6 133//6
f 134//5 132//5 130//5
